<svg xmlns="http://www.w3.org/2000/svg" width="820" height="520" font-family="Segoe UI,Arial" font-size="13"><rect width="820" height="520" fill="#fff"/><text x="410" y="30" text-anchor="middle" font-size="17" font-weight="bold">Image billing by size — the discovery that beats narrow-baseline</text><line x1="80" y1="450" x2="640" y2="450" stroke="#eee"/><text x="72" y="454" text-anchor="end" fill="#666">0</text><line x1="80" y1="372" x2="640" y2="372" stroke="#eee"/><text x="72" y="376" text-anchor="end" fill="#666">1000</text><line x1="80" y1="294" x2="640" y2="294" stroke="#eee"/><text x="72" y="298" text-anchor="end" fill="#666">2000</text><line x1="80" y1="216" x2="640" y2="216" stroke="#eee"/><text x="72" y="220" text-anchor="end" fill="#666">3000</text><line x1="80" y1="138" x2="640" y2="138" stroke="#eee"/><text x="72" y="142" text-anchor="end" fill="#666">4000</text><line x1="80" y1="60" x2="640" y2="60" stroke="#eee"/><text x="72" y="64" text-anchor="end" fill="#666">5000</text><text x="80" y="470" text-anchor="middle" fill="#666">0</text><text x="187.69230769230768" y="470" text-anchor="middle" fill="#666">5</text><text x="295.38461538461536" y="470" text-anchor="middle" fill="#666">10</text><text x="403.07692307692304" y="470" text-anchor="middle" fill="#666">15</text><text x="510.7692307692308" y="470" text-anchor="middle" fill="#666">20</text><text x="618.4615384615385" y="470" text-anchor="middle" fill="#666">25</text><text x="360" y="505" text-anchor="middle" font-weight="bold">Image size (megapixels)</text><text x="20" y="255" text-anchor="middle" font-weight="bold" transform="rotate(-90 20 255)">Billed tokens</text><path d="M92.70769230769231 365.058 L104.55384615384615 365.916 L170.24615384615385 365.058 L260.70769230769235 365.682 L441.41538461538465 365.058 L622.123076923077 365.76 " fill="none" stroke="#1a73e8" stroke-width="2.5"/><circle cx="92.70769230769231" cy="365.058" r="3" fill="#1a73e8"/><circle cx="104.55384615384615" cy="365.916" r="3" fill="#1a73e8"/><circle cx="170.24615384615385" cy="365.058" r="3" fill="#1a73e8"/><circle cx="260.70769230769235" cy="365.682" r="3" fill="#1a73e8"/><circle cx="441.41538461538465" cy="365.058" r="3" fill="#1a73e8"/><circle cx="622.123076923077" cy="365.76" r="3" fill="#1a73e8"/><circle cx="658" cy="75" r="5" fill="#1a73e8"/><text x="670" y="79">Gemini 3.1</text><path d="M92.70769230769231 388.61400000000003 L104.55384615384615 336.198 L113.81538461538462 288.15 L170.24615384615385 78.40800000000002 L260.70769230769235 119.67000000000002 L622.123076923077 82.854 " fill="none" stroke="#d93025" stroke-width="2.5"/><circle cx="92.70769230769231" cy="388.61400000000003" r="3" fill="#d93025"/><circle cx="104.55384615384615" cy="336.198" r="3" fill="#d93025"/><circle cx="113.81538461538462" cy="288.15" r="3" fill="#d93025"/><circle cx="170.24615384615385" cy="78.40800000000002" r="3" fill="#d93025"/><circle cx="260.70769230769235" cy="119.67000000000002" r="3" fill="#d93025"/><circle cx="622.123076923077" cy="82.854" r="3" fill="#d93025"/><circle cx="658" cy="97" r="5" fill="#d93025"/><text x="670" y="101">Opus 4.8</text><path d="M92.70769230769231 396.024 L104.55384615384615 344.466 L113.81538461538462 306.168 L170.24615384615385 231.20999999999998 L260.70769230769235 267.48 L622.123076923077 240.024 " fill="none" stroke="#188038" stroke-width="2.5"/><circle cx="92.70769230769231" cy="396.024" r="3" fill="#188038"/><circle cx="104.55384615384615" cy="344.466" r="3" fill="#188038"/><circle cx="113.81538461538462" cy="306.168" r="3" fill="#188038"/><circle cx="170.24615384615385" cy="231.20999999999998" r="3" fill="#188038"/><circle cx="260.70769230769235" cy="267.48" r="3" fill="#188038"/><circle cx="622.123076923077" cy="240.024" r="3" fill="#188038"/><circle cx="658" cy="119" r="5" fill="#188038"/><text x="670" y="123">GPT-5.4</text><text x="658" y="153" font-size="11" fill="#1a73e8">Gemini: FLAT ~1080</text><text x="658" y="169" font-size="11" fill="#666">= pack big, pay once</text></svg>